<svg xmlns="http://www.w3.org/2000/svg" width="60" height="60" viewBox="0 0 60 60" fill="none">
  <path d="M53.75 18.75H47.5V12.5C47.5 11.1739 46.9732 9.90215 46.0355 8.96447C45.0979 8.02678 43.8261 7.5 42.5 7.5H17.5C16.1739 7.5 14.9021 8.02678 13.9645 8.96447C13.0268 9.90215 12.5 11.1739 12.5 12.5V18.75H6.25C4.92392 18.75 3.65215 19.2768 2.71447 20.2145C1.77678 21.1521 1.25 22.4239 1.25 23.75V48.75C1.25 50.0761 1.77678 51.3479 2.71447 52.2855C3.65215 53.2232 4.92392 53.75 6.25 53.75H53.75C55.0761 53.75 56.3479 53.2232 57.2855 52.2855C58.2232 51.3479 58.75 50.0761 58.75 48.75V23.75C58.75 22.4239 58.2232 21.1521 57.2855 20.2145C56.3479 19.2768 55.0761 18.75 53.75 18.75ZM17.5 12.5H42.5V28.75H17.5V12.5ZM53.75 48.75H6.25V23.75H12.5V33.75C12.5 34.413 12.7634 35.0489 13.2322 35.5178C13.7011 35.9866 14.337 36.25 15 36.25H45C45.663 36.25 46.2989 35.9866 46.7678 35.5178C47.2366 35.0489 47.5 34.413 47.5 33.75V23.75H53.75V48.75Z" fill="#D4AF37"/>
  <path d="M32.5 21.25H27.5V26.25H22.5V31.25H27.5V36.25H32.5V31.25H37.5V26.25H32.5V21.25Z" fill="#D4AF37"/>
</svg> 