<svg xmlns="http://www.w3.org/2000/svg" width="60" height="60" viewBox="0 0 60 60" fill="none">
  <path d="M48.5 8.75C43.5 8.75 40 11.25 40 15V16.25C40 18.75 38.75 21.25 36.25 21.25C33.75 21.25 32.5 18.75 32.5 16.25V11.25C32.5 7.5 29 5 24 5C19 5 15.5 7.5 15.5 11.25V16.25C15.5 18.75 14.25 21.25 11.75 21.25C9.25 21.25 8 18.75 8 16.25V15C8 11.25 4.5 8.75 -0.5 8.75H2C2 8.75 3.5 8.75 3.5 10V15C3.5 21.25 7 25 12 25C17 25 20.5 21.25 20.5 15V11.25C20.5 10 22 10 24 10C26 10 27.5 10 27.5 11.25V15C27.5 21.25 31 25 36 25C41 25 44.5 21.25 44.5 15V10C44.5 8.75 46 8.75 46 8.75H48.5Z" fill="#D4AF37"/>
  <path d="M47.5 30H12.5C11.837 30 11.2011 30.2634 10.7322 30.7322C10.2634 31.2011 10 31.837 10 32.5V45C10 45.663 10.2634 46.2989 10.7322 46.7678C11.2011 47.2366 11.837 47.5 12.5 47.5H21.175C21.5279 47.4997 21.8722 47.6036 22.1617 47.7979C22.4512 47.9921 22.6723 48.2677 22.7951 48.5865C22.9178 48.9053 22.9362 49.2522 22.8479 49.5818C22.7596 49.9115 22.5686 50.2083 22.3 50.4333L18.75 53.3333C18.3753 53.6376 18.0883 54.0347 17.9149 54.4824C17.7415 54.9301 17.6877 55.4132 17.7589 55.8876C17.8301 56.362 18.0237 56.8119 18.3222 57.1981C18.6207 57.5844 19.0139 57.894 19.4625 58.0983C19.911 58.3027 20.3994 58.3953 20.8864 58.3674C21.3733 58.3395 21.8466 58.1919 22.2627 57.9383C22.6788 57.6847 23.0247 57.3327 23.2684 56.9137C23.512 56.4947 23.6457 56.0225 23.6583 55.5417L23.75 53.3333H36.25L36.3417 55.5417C36.3543 56.0225 36.488 56.4947 36.7316 56.9137C36.9753 57.3327 37.3212 57.6847 37.7373 57.9383C38.1534 58.1919 38.6267 58.3395 39.1136 58.3674C39.6006 58.3953 40.089 58.3027 40.5375 58.0983C40.9861 57.894 41.3793 57.5844 41.6778 57.1981C41.9763 56.8119 42.1699 56.362 42.2411 55.8876C42.3123 55.4132 42.2585 54.9301 42.0851 54.4824C41.9117 54.0347 41.6247 53.6376 41.25 53.3333L37.7 50.4333C37.4314 50.2083 37.2404 49.9115 37.1521 49.5818C37.0638 49.2522 37.0822 48.9053 37.2049 48.5865C37.3277 48.2677 37.5488 47.9921 37.8383 47.7979C38.1278 47.6036 38.4721 47.4997 38.825 47.5H47.5C48.163 47.5 48.7989 47.2366 49.2678 46.7678C49.7366 46.2989 50 45.663 50 45V32.5C50 31.837 49.7366 31.2011 49.2678 30.7322C48.7989 30.2634 48.163 30 47.5 30ZM45 42.5H15V35H45V42.5Z" fill="#D4AF37"/>
</svg> 